<?xml version="1.0" encoding="UTF-8"?>
<svg xmlns="http://www.w3.org/2000/svg" xmlns:xlink="http://www.w3.org/1999/xlink" width="90" height="160" viewBox="0 0 90 160">
<defs>
<g>
<g id="glyph-0-0">
<path d="M 5.921875 -10.953125 L 3.609375 -4.65625 L 8.25 -4.65625 Z M 4.953125 -12.625 L 6.890625 -12.625 L 11.703125 0 L 9.9375 0 L 8.78125 -3.234375 L 3.09375 -3.234375 L 1.9375 0 L 0.140625 0 Z "/>
</g>
<g id="glyph-0-1">
<path d="M 7.125 -8.015625 C 6.945312 -8.117188 6.753906 -8.191406 6.546875 -8.234375 C 6.347656 -8.285156 6.125 -8.3125 5.875 -8.3125 C 4.988281 -8.3125 4.3125 -8.023438 3.84375 -7.453125 C 3.375 -6.878906 3.140625 -6.054688 3.140625 -4.984375 L 3.140625 0 L 1.578125 0 L 1.578125 -9.46875 L 3.140625 -9.46875 L 3.140625 -8 C 3.460938 -8.570312 3.882812 -9 4.40625 -9.28125 C 4.9375 -9.5625 5.578125 -9.703125 6.328125 -9.703125 C 6.429688 -9.703125 6.546875 -9.691406 6.671875 -9.671875 C 6.804688 -9.660156 6.953125 -9.644531 7.109375 -9.625 Z "/>
</g>
<g id="glyph-0-2">
<path d="M 9.734375 -5.125 L 9.734375 -4.359375 L 2.578125 -4.359375 C 2.648438 -3.296875 2.972656 -2.484375 3.546875 -1.921875 C 4.128906 -1.359375 4.9375 -1.078125 5.96875 -1.078125 C 6.5625 -1.078125 7.140625 -1.148438 7.703125 -1.296875 C 8.265625 -1.441406 8.820312 -1.660156 9.375 -1.953125 L 9.375 -0.484375 C 8.8125 -0.242188 8.238281 -0.0625 7.65625 0.0625 C 7.070312 0.1875 6.476562 0.25 5.875 0.25 C 4.363281 0.25 3.164062 -0.1875 2.28125 -1.0625 C 1.394531 -1.945312 0.953125 -3.140625 0.953125 -4.640625 C 0.953125 -6.191406 1.367188 -7.421875 2.203125 -8.328125 C 3.046875 -9.242188 4.175781 -9.703125 5.59375 -9.703125 C 6.875 -9.703125 7.882812 -9.289062 8.625 -8.46875 C 9.363281 -7.65625 9.734375 -6.539062 9.734375 -5.125 Z M 8.1875 -5.578125 C 8.175781 -6.429688 7.9375 -7.113281 7.46875 -7.625 C 7 -8.132812 6.382812 -8.390625 5.625 -8.390625 C 4.75 -8.390625 4.050781 -8.140625 3.53125 -7.640625 C 3.007812 -7.148438 2.707031 -6.460938 2.625 -5.578125 Z "/>
</g>
<g id="glyph-0-3">
<path d="M 5.9375 -4.765625 C 4.675781 -4.765625 3.800781 -4.617188 3.3125 -4.328125 C 2.832031 -4.046875 2.59375 -3.554688 2.59375 -2.859375 C 2.59375 -2.304688 2.773438 -1.867188 3.140625 -1.546875 C 3.503906 -1.222656 4 -1.0625 4.625 -1.0625 C 5.488281 -1.0625 6.179688 -1.363281 6.703125 -1.96875 C 7.222656 -2.582031 7.484375 -3.398438 7.484375 -4.421875 L 7.484375 -4.765625 Z M 9.046875 -5.40625 L 9.046875 0 L 7.484375 0 L 7.484375 -1.4375 C 7.128906 -0.863281 6.6875 -0.4375 6.15625 -0.15625 C 5.625 0.113281 4.976562 0.25 4.21875 0.25 C 3.25 0.25 2.476562 -0.0195312 1.90625 -0.5625 C 1.332031 -1.113281 1.046875 -1.847656 1.046875 -2.765625 C 1.046875 -3.828125 1.398438 -4.628906 2.109375 -5.171875 C 2.828125 -5.710938 3.894531 -5.984375 5.3125 -5.984375 L 7.484375 -5.984375 L 7.484375 -6.140625 C 7.484375 -6.847656 7.25 -7.398438 6.78125 -7.796875 C 6.3125 -8.191406 5.648438 -8.390625 4.796875 -8.390625 C 4.253906 -8.390625 3.722656 -8.320312 3.203125 -8.1875 C 2.691406 -8.0625 2.203125 -7.867188 1.734375 -7.609375 L 1.734375 -9.046875 C 2.304688 -9.265625 2.859375 -9.425781 3.390625 -9.53125 C 3.929688 -9.644531 4.453125 -9.703125 4.953125 -9.703125 C 6.328125 -9.703125 7.351562 -9.347656 8.03125 -8.640625 C 8.707031 -7.929688 9.046875 -6.851562 9.046875 -5.40625 Z "/>
</g>
<g id="glyph-0-4">
<path d="M 7.671875 -9.203125 L 7.671875 -7.71875 C 7.234375 -7.945312 6.773438 -8.117188 6.296875 -8.234375 C 5.828125 -8.347656 5.335938 -8.40625 4.828125 -8.40625 C 4.054688 -8.40625 3.476562 -8.285156 3.09375 -8.046875 C 2.707031 -7.804688 2.515625 -7.453125 2.515625 -6.984375 C 2.515625 -6.617188 2.648438 -6.332031 2.921875 -6.125 C 3.203125 -5.925781 3.757812 -5.734375 4.59375 -5.546875 L 5.125 -5.421875 C 6.226562 -5.179688 7.015625 -4.847656 7.484375 -4.421875 C 7.953125 -3.992188 8.1875 -3.390625 8.1875 -2.609375 C 8.1875 -1.734375 7.835938 -1.035156 7.140625 -0.515625 C 6.441406 -0.00390625 5.484375 0.25 4.265625 0.25 C 3.753906 0.25 3.222656 0.195312 2.671875 0.09375 C 2.128906 0 1.550781 -0.144531 0.9375 -0.34375 L 0.9375 -1.953125 C 1.507812 -1.648438 2.078125 -1.425781 2.640625 -1.28125 C 3.203125 -1.132812 3.753906 -1.0625 4.296875 -1.0625 C 5.023438 -1.0625 5.585938 -1.1875 5.984375 -1.4375 C 6.378906 -1.6875 6.578125 -2.039062 6.578125 -2.5 C 6.578125 -2.914062 6.4375 -3.238281 6.15625 -3.46875 C 5.875 -3.695312 5.25 -3.914062 4.28125 -4.125 L 3.734375 -4.25 C 2.773438 -4.445312 2.078125 -4.753906 1.640625 -5.171875 C 1.210938 -5.597656 1 -6.175781 1 -6.90625 C 1 -7.800781 1.316406 -8.488281 1.953125 -8.96875 C 2.585938 -9.457031 3.484375 -9.703125 4.640625 -9.703125 C 5.222656 -9.703125 5.765625 -9.660156 6.265625 -9.578125 C 6.773438 -9.492188 7.242188 -9.367188 7.671875 -9.203125 Z "/>
</g>
<g id="glyph-0-5">
<path d="M 8.453125 -9.109375 L 8.453125 -7.65625 C 8.015625 -7.894531 7.570312 -8.078125 7.125 -8.203125 C 6.6875 -8.328125 6.238281 -8.390625 5.78125 -8.390625 C 4.769531 -8.390625 3.984375 -8.066406 3.421875 -7.421875 C 2.867188 -6.785156 2.59375 -5.890625 2.59375 -4.734375 C 2.59375 -3.578125 2.867188 -2.675781 3.421875 -2.03125 C 3.984375 -1.394531 4.769531 -1.078125 5.78125 -1.078125 C 6.238281 -1.078125 6.6875 -1.132812 7.125 -1.25 C 7.570312 -1.375 8.015625 -1.554688 8.453125 -1.796875 L 8.453125 -0.359375 C 8.015625 -0.160156 7.5625 -0.0078125 7.09375 0.09375 C 6.632812 0.195312 6.144531 0.25 5.625 0.25 C 4.195312 0.25 3.0625 -0.195312 2.21875 -1.09375 C 1.375 -1.988281 0.953125 -3.203125 0.953125 -4.734375 C 0.953125 -6.273438 1.375 -7.488281 2.21875 -8.375 C 3.070312 -9.257812 4.238281 -9.703125 5.71875 -9.703125 C 6.195312 -9.703125 6.664062 -9.648438 7.125 -9.546875 C 7.582031 -9.453125 8.023438 -9.304688 8.453125 -9.109375 Z "/>
</g>
<g id="glyph-0-6">
<path d="M 1.640625 -13.171875 L 3.1875 -13.171875 L 3.1875 0 L 1.640625 0 Z "/>
</g>
</g>
</defs>
<g fill="rgb(9.019608%, 8.235294%, 5.882353%)" fill-opacity="1">
<use xlink:href="#glyph-0-0" x="30" y="36.088867"/>
<use xlink:href="#glyph-0-1" x="41.857422" y="36.088867"/>
<use xlink:href="#glyph-0-2" x="48.602539" y="36.088867"/>
<use xlink:href="#glyph-0-3" x="59.266602" y="36.088867"/>
</g>
<g fill="rgb(9.019608%, 8.235294%, 5.882353%)" fill-opacity="1">
<use xlink:href="#glyph-0-4" x="30" y="56.265625"/>
<use xlink:href="#glyph-0-5" x="39.030273" y="56.265625"/>
<use xlink:href="#glyph-0-3" x="48.55957" y="56.265625"/>
<use xlink:href="#glyph-0-6" x="59.180664" y="56.265625"/>
<use xlink:href="#glyph-0-2" x="63.996094" y="56.265625"/>
<use xlink:href="#glyph-0-4" x="74.660156" y="56.265625"/>
</g>
</svg>
