<?xml version="1.0" encoding="UTF-8"?>
<svg xmlns="http://www.w3.org/2000/svg" xmlns:xlink="http://www.w3.org/1999/xlink" width="90" height="160" viewBox="0 0 90 160">
<defs>
<g>
<g id="glyph-0-0">
<path d="M 2.140625 0.078125 C 1.816406 0.078125 1.535156 0.015625 1.296875 -0.109375 C 1.066406 -0.242188 0.882812 -0.425781 0.75 -0.65625 C 0.625 -0.882812 0.5625 -1.148438 0.5625 -1.453125 L 0.5625 -3.734375 C 0.5625 -4.046875 0.625 -4.316406 0.75 -4.546875 C 0.882812 -4.773438 1.066406 -4.953125 1.296875 -5.078125 C 1.535156 -5.203125 1.816406 -5.265625 2.140625 -5.265625 C 2.453125 -5.265625 2.722656 -5.203125 2.953125 -5.078125 C 3.191406 -4.953125 3.375 -4.773438 3.5 -4.546875 C 3.632812 -4.316406 3.703125 -4.046875 3.703125 -3.734375 L 3.703125 -1.453125 C 3.703125 -1.148438 3.632812 -0.882812 3.5 -0.65625 C 3.375 -0.425781 3.191406 -0.242188 2.953125 -0.109375 C 2.722656 0.015625 2.453125 0.078125 2.140625 0.078125 Z M 2.140625 -0.46875 C 2.421875 -0.46875 2.644531 -0.5625 2.8125 -0.75 C 2.988281 -0.9375 3.078125 -1.171875 3.078125 -1.453125 L 3.078125 -3.734375 C 3.078125 -4.023438 2.988281 -4.257812 2.8125 -4.4375 C 2.644531 -4.625 2.421875 -4.71875 2.140625 -4.71875 C 1.847656 -4.71875 1.613281 -4.625 1.4375 -4.4375 C 1.269531 -4.257812 1.1875 -4.023438 1.1875 -3.734375 L 1.1875 -1.453125 C 1.1875 -1.171875 1.269531 -0.9375 1.4375 -0.75 C 1.613281 -0.5625 1.847656 -0.46875 2.140625 -0.46875 Z M 2.140625 -2.171875 C 2.003906 -2.171875 1.894531 -2.210938 1.8125 -2.296875 C 1.738281 -2.378906 1.703125 -2.484375 1.703125 -2.609375 C 1.703125 -2.742188 1.738281 -2.847656 1.8125 -2.921875 C 1.894531 -3.003906 2.003906 -3.046875 2.140625 -3.046875 C 2.265625 -3.046875 2.363281 -3.003906 2.4375 -2.921875 C 2.519531 -2.847656 2.5625 -2.742188 2.5625 -2.609375 C 2.5625 -2.484375 2.519531 -2.378906 2.4375 -2.296875 C 2.363281 -2.210938 2.265625 -2.171875 2.140625 -2.171875 Z "/>
</g>
<g id="glyph-0-1">
<path d="M 2.140625 0.078125 C 1.953125 0.078125 1.804688 0.0234375 1.703125 -0.078125 C 1.597656 -0.179688 1.546875 -0.320312 1.546875 -0.5 C 1.546875 -0.6875 1.597656 -0.832031 1.703125 -0.9375 C 1.804688 -1.050781 1.953125 -1.109375 2.140625 -1.109375 C 2.316406 -1.109375 2.457031 -1.050781 2.5625 -0.9375 C 2.664062 -0.832031 2.71875 -0.6875 2.71875 -0.5 C 2.71875 -0.320312 2.664062 -0.179688 2.5625 -0.078125 C 2.457031 0.0234375 2.316406 0.078125 2.140625 0.078125 Z "/>
</g>
<g id="glyph-0-2">
<path d="M 1.3125 0 L 3.171875 -4.609375 L 1.203125 -4.609375 L 1.203125 -3.84375 L 0.5625 -3.84375 L 0.5625 -5.1875 L 3.796875 -5.1875 L 3.796875 -4.5625 L 2 0 Z "/>
</g>
<g id="glyph-0-3">
<path d="M 2.125 0.078125 C 1.695312 0.078125 1.347656 -0.03125 1.078125 -0.25 C 0.804688 -0.46875 0.648438 -0.765625 0.609375 -1.140625 L 1.25 -1.140625 C 1.269531 -0.929688 1.351562 -0.769531 1.5 -0.65625 C 1.65625 -0.550781 1.863281 -0.5 2.125 -0.5 C 2.425781 -0.5 2.648438 -0.578125 2.796875 -0.734375 C 2.941406 -0.898438 3.015625 -1.128906 3.015625 -1.421875 L 3.015625 -1.921875 C 3.015625 -2.222656 2.941406 -2.453125 2.796875 -2.609375 C 2.648438 -2.765625 2.429688 -2.84375 2.140625 -2.84375 C 1.953125 -2.84375 1.785156 -2.796875 1.640625 -2.703125 C 1.503906 -2.609375 1.40625 -2.476562 1.34375 -2.3125 L 0.71875 -2.3125 L 0.75 -5.1875 L 3.46875 -5.1875 L 3.46875 -4.609375 L 1.359375 -4.609375 L 1.34375 -2.875 L 1.546875 -2.875 L 1.34375 -2.6875 C 1.34375 -2.914062 1.429688 -3.09375 1.609375 -3.21875 C 1.785156 -3.34375 2.023438 -3.40625 2.328125 -3.40625 C 2.742188 -3.414062 3.066406 -3.285156 3.296875 -3.015625 C 3.535156 -2.753906 3.65625 -2.390625 3.65625 -1.921875 L 3.65625 -1.421875 C 3.65625 -0.960938 3.519531 -0.597656 3.25 -0.328125 C 2.976562 -0.0546875 2.601562 0.078125 2.125 0.078125 Z "/>
</g>
</g>
</defs>
<g fill="rgb(9.019608%, 8.235294%, 5.882353%)" fill-opacity="1">
<use xlink:href="#glyph-0-0" x="30" y="27.25293"/>
<use xlink:href="#glyph-0-1" x="34.266602" y="27.25293"/>
<use xlink:href="#glyph-0-2" x="38.533203" y="27.25293"/>
<use xlink:href="#glyph-0-3" x="42.799805" y="27.25293"/>
<use xlink:href="#glyph-0-0" x="47.066406" y="27.25293"/>
</g>
</svg>
